<?xml version="1.0" standalone="no"?>
<!DOCTYPE svg PUBLIC "-//W3C//DTD SVG 20010904//EN"
 "http://www.w3.org/TR/2001/REC-SVG-20010904/DTD/svg10.dtd">
<svg version="1.0" xmlns="http://www.w3.org/2000/svg"
 width="1000.000000pt" height="1000.000000pt" viewBox="0 0 1000.000000 1000.000000"
 preserveAspectRatio="xMidYMid meet">
<metadata>
Created by potrace 1.14, written by Peter Selinger 2001-2017
</metadata>
<g transform="translate(0.000000,1000.000000) scale(0.100000,-0.100000)"
fill="#000000" stroke="none">
<path d="M7986 9524 c-255 -57 -497 -246 -614 -479 -172 -345 -110 -757 157
-1038 100 -106 282 -213 426 -252 81 -22 272 -30 362 -16 294 46 547 231 678
496 70 143 90 232 89 405 -1 176 -20 257 -94 405 -85 170 -198 288 -373 387
-130 74 -232 100 -412 104 -109 3 -169 -1 -219 -12z"/>
<path d="M4920 8634 c-211 -25 -417 -121 -552 -256 -276 -276 -351 -661 -198
-1020 82 -191 273 -381 467 -462 137 -57 207 -71 363 -71 156 0 226 14 363 71
144 60 302 193 396 332 120 178 176 439 137 643 -72 379 -313 643 -671 734
-89 23 -237 37 -305 29z"/>
<path d="M1712 7720 c-165 -23 -345 -98 -461 -193 -138 -112 -267 -311 -313
-482 -29 -110 -31 -326 -4 -435 23 -94 92 -243 150 -324 50 -70 149 -167 219
-215 72 -49 222 -116 307 -137 109 -27 325 -25 435 5 163 44 328 142 437 260
160 172 240 380 240 621 0 144 -17 233 -69 354 -92 216 -259 383 -478 478
-137 60 -322 87 -463 68z"/>
<path d="M7380 7263 c-50 -8 -127 -37 -205 -76 -116 -57 -217 -162 -279 -288
-79 -160 -76 -102 -76 -1290 l0 -1056 78 -5 c42 -3 143 -3 225 0 l147 5 0
-1142 0 -1141 910 0 910 0 0 1134 0 1134 225 7 225 7 0 1072 c0 1196 4 1120
-72 1276 -33 69 -57 101 -127 170 -99 98 -187 149 -307 180 -74 19 -111 20
-853 19 -427 -1 -787 -4 -801 -6z"/>
<path d="M4155 6344 c-181 -44 -361 -188 -443 -354 -75 -154 -72 -89 -72
-1282 l0 -1068 225 0 225 0 0 -1140 0 -1140 910 0 910 0 0 1140 0 1140 225 0
225 0 0 1068 c0 1193 3 1128 -72 1282 -59 120 -178 239 -298 298 -152 74 -121
72 -995 71 -644 -1 -790 -3 -840 -15z"/>
<path d="M977 5435 c-32 -7 -98 -32 -145 -55 -70 -35 -104 -60 -174 -130 -71
-71 -95 -102 -127 -171 -75 -157 -71 -81 -71 -1276 l0 -1073 225 0 225 0 0
-1135 0 -1135 228 0 c125 0 534 -3 910 -7 l682 -6 0 1141 0 1142 225 0 225 0
0 1058 c0 1144 1 1120 -55 1252 -82 195 -269 352 -471 395 -95 20 -1585 20
-1677 0z"/>
</g>
</svg>
